<?xml version="1.0" standalone="no"?>
<!DOCTYPE svg PUBLIC "-//W3C//DTD SVG 20010904//EN"
 "http://www.w3.org/TR/2001/REC-SVG-20010904/DTD/svg10.dtd">
<svg version="1.0" xmlns="http://www.w3.org/2000/svg"
 width="200.000000pt" height="200.000000pt" viewBox="0 0 200.000000 200.000000"
 preserveAspectRatio="xMidYMid meet">

<g transform="translate(0.000000,200.000000) scale(0.100000,-0.100000)"
fill="#FFFF" stroke="none">
<path d="M463 1825 c-82 -25 -173 -91 -173 -124 0 -29 25 -26 69 8 20 15 50
35 66 43 47 24 143 41 194 33 58 -8 148 -48 183 -81 30 -29 63 -29 63 1 0 29
-90 92 -164 115 -73 23 -175 25 -238 5z"/>
<path d="M503 1706 c-45 -15 -104 -48 -122 -70 -15 -18 -3 -46 19 -46 10 0 24
7 31 17 23 28 91 53 145 53 56 0 104 -16 147 -50 55 -44 79 0 25 46 -65 54
-168 75 -245 50z"/>
<path d="M503 1570 c-32 -19 -44 -52 -23 -65 5 -3 26 4 47 15 46 24 55 25 99
4 66 -32 89 13 24 47 -45 25 -107 24 -147 -1z"/>
<path d="M863 1553 c-9 -3 -13 -26 -13 -64 l0 -59 -372 -2 -373 -3 -3 -505 -2
-505 127 -127 128 -128 380 2 380 3 3 254 2 253 23 -6 c12 -3 27 -6 33 -6 8 0
13 -46 16 -147 4 -136 6 -152 31 -199 85 -165 289 -202 435 -79 46 39 81 118
88 203 6 57 10 72 23 72 31 0 89 49 110 93 87 179 -128 348 -280 220 -42 -36
-62 -80 -62 -138 0 -80 40 -138 116 -170 37 -15 37 -16 37 -73 -1 -73 -25
-128 -80 -174 -101 -87 -249 -67 -326 43 -29 42 -29 45 -32 195 l-3 153 38 7
c94 17 186 78 237 156 62 94 67 129 64 449 l-3 284 -83 3 c-67 2 -83 0 -88
-13 -11 -29 15 -45 73 -45 l55 0 -4 -268 -3 -267 -33 -67 c-56 -113 -157 -179
-276 -180 -117 -1 -105 -38 -108 360 l-3 347 -107 3 -108 3 0 34 0 35 54 0
c61 0 88 19 66 45 -9 11 -31 15 -79 14 -36 0 -72 -3 -78 -6z m-11 -395 c3
-217 4 -225 29 -279 33 -69 88 -132 146 -166 l43 -25 -2 -237 -3 -236 -332 -3
-332 -2 -3 122 -3 123 -122 3 -123 3 0 459 0 460 349 0 350 0 3 -222z m216
-90 c2 -248 0 -308 -11 -308 -22 0 -105 93 -129 145 -21 46 -23 66 -26 263
l-4 213 84 -3 83 -3 3 -307z m731 -283 c63 -53 63 -146 0 -199 -24 -20 -41
-26 -80 -26 -42 0 -55 5 -87 34 -34 32 -37 38 -37 91 0 53 3 59 37 91 32 29
45 34 87 34 38 0 56 -6 80 -25z m-1449 -450 c0 -41 -3 -75 -7 -75 -10 0 -143
132 -143 142 0 5 34 8 75 8 l75 0 0 -75z"/>
<path d="M313 1303 c-36 -7 -81 -56 -88 -96 -5 -27 -2 -47 13 -76 l21 -39 -25
-23 c-27 -25 -50 -89 -41 -113 4 -9 15 -16 26 -16 19 0 31 18 31 49 0 10 12
30 26 45 54 53 147 22 163 -54 5 -25 13 -36 28 -38 11 -2 23 4 26 12 9 23 -11
82 -39 115 -24 29 -24 32 -10 53 23 33 20 100 -6 133 -19 25 -76 57 -95 54 -4
-1 -18 -4 -30 -6z m77 -73 c58 -58 -20 -142 -88 -94 -27 18 -30 69 -5 96 21
24 68 23 93 -2z"/>
<path d="M362 801 c-8 -5 -12 -17 -10 -27 3 -18 15 -19 178 -19 163 0 175 1
178 19 2 10 -2 22 -10 27 -7 5 -83 9 -168 9 -85 0 -161 -4 -168 -9z"/>
<path d="M357 614 c-13 -13 -7 -42 9 -48 24 -9 477 -7 492 3 8 5 12 17 10 27
-3 18 -18 19 -254 22 -138 1 -253 -1 -257 -4z"/>
</g>
</svg>
